<?xml version="1.0" encoding="iso-8859-1"?>
<!-- Generator: Adobe Illustrator 19.0.0, SVG Export Plug-In . SVG Version: 6.00 Build 0)  -->
<svg version="1.1" id="Capa_1" xmlns="http://www.w3.org/2000/svg" xmlns:xlink="http://www.w3.org/1999/xlink" x="0px" y="0px"
	 viewBox="0 0 512 512" style="enable-background:new 0 0 512 512;" xml:space="preserve">
<path style="fill:#5A6384;" d="M497.203,124.945v348.247c0,21.402-17.406,38.808-38.808,38.808H53.595
	c-21.392,0-38.798-17.406-38.798-38.808V38.808C14.797,17.406,32.203,0,53.595,0h319.594c10.295,0,20.35,4.196,27.591,11.517
	l85.206,86.138C493.217,104.976,497.203,114.66,497.203,124.945z"/>
<path style="fill:#445175;" d="M497.203,124.945v348.247c0,21.402-17.406,38.808-38.808,38.808h-202.4V0h117.194
	c10.295,0,20.35,4.196,27.591,11.517l85.206,86.138C493.217,104.976,497.203,114.66,497.203,124.945z"/>
<g>
	<path style="fill:#FFB13B;" d="M159.281,0v127.479c0,9.454,7.691,17.145,17.145,17.145h161.4c9.454,0,17.135-7.691,17.135-17.145V0
		H159.281z"/>
	<path style="fill:#FFB13B;" d="M430.164,280.486V512H84.09V280.486c0-9.454,7.691-17.145,17.135-17.145h311.793
		C422.472,263.341,430.164,271.032,430.164,280.486z"/>
</g>
<g>
	<path style="fill:#FF9500;" d="M337.827,144.625h-81.831V0h98.967v127.479C354.962,136.933,347.281,144.625,337.827,144.625z"/>
	<path style="fill:#FF9500;" d="M430.164,280.486V512H255.995V263.341h157.023C422.472,263.341,430.164,271.032,430.164,280.486z"/>
</g>
<g>
	<rect x="216.331" style="fill:#FF7045;" width="30.045" height="144.625"/>
	<path style="fill:#FF7045;" d="M430.164,280.486v61.021H84.09v-61.021c0-9.454,7.691-17.145,17.135-17.145h311.793
		C422.472,263.341,430.164,271.032,430.164,280.486z"/>
</g>
<path style="fill:#F45607;" d="M430.164,280.486v61.021H255.995v-78.166h157.023C422.472,263.341,430.164,271.032,430.164,280.486z"
	/>
<path style="fill:#FF7045;" d="M330.836,390.259c0,8.292-6.72,15.022-15.022,15.022H196.176c-8.292,0-15.022-6.73-15.022-15.022
	c0-8.302,6.73-15.022,15.022-15.022h119.638C324.116,375.237,330.836,381.957,330.836,390.259z"/>
<path style="fill:#F45607;" d="M330.836,390.259c0,8.292-6.72,15.022-15.022,15.022h-59.819v-30.045h59.819
	C324.116,375.237,330.836,381.957,330.836,390.259z"/>
<g>
</g>
<g>
</g>
<g>
</g>
<g>
</g>
<g>
</g>
<g>
</g>
<g>
</g>
<g>
</g>
<g>
</g>
<g>
</g>
<g>
</g>
<g>
</g>
<g>
</g>
<g>
</g>
<g>
</g>
</svg>
