<svg height="512" viewBox="0 0 64 64" width="512" xmlns="http://www.w3.org/2000/svg"><g id="fillter-pass-data-right-currency"><circle cx="54" cy="48" fill="#46f8ff" r="7"/><circle cx="32" cy="54" fill="#46f8ff" r="7"/><circle cx="10" cy="48" fill="#46f8ff" r="7"/><path d="m61 48a7 7 0 0 1 -13.53 2.53 7.007 7.007 0 0 0 9.06-9.06 6.987 6.987 0 0 1 4.47 6.53z" fill="#00d7df"/><path d="m39 54a7 7 0 0 1 -13.53 2.53 7.007 7.007 0 0 0 9.06-9.06 6.987 6.987 0 0 1 4.47 6.53z" fill="#00d7df"/><path d="m17 48a7 7 0 0 1 -13.53 2.53 7.007 7.007 0 0 0 9.06-9.06 6.987 6.987 0 0 1 4.47 6.53z" fill="#00d7df"/><path d="m61 19-23 14.75v9.25h-12v-9.25l-23-14.75z" fill="#57a4ff"/><path d="m61 19-23 14.75v9.25h-12v-3h9v-9.25l18.32-11.75z" fill="#006df0"/><g fill="#ffde55"><circle cx="58" cy="9" r="3"/><circle cx="45" cy="8" r="5"/><circle cx="33" cy="12" r="3"/><circle cx="23" cy="7" r="4"/></g><path d="m61 9a3 3 0 0 1 -5.87.87 3.1 3.1 0 0 0 .87.13 3 3 0 0 0 3-3 3.1 3.1 0 0 0 -.13-.87 2.982 2.982 0 0 1 2.13 2.87z" fill="#ebbf00"/><path d="m36 12a3 3 0 0 1 -5.87.87 3.1 3.1 0 0 0 .87.13 3 3 0 0 0 3-3 3.1 3.1 0 0 0 -.13-.87 2.982 2.982 0 0 1 2.13 2.87z" fill="#ebbf00"/><path d="m27 7a3.995 3.995 0 0 1 -7.64 1.64 3.931 3.931 0 0 0 1.64.36 4 4 0 0 0 4-4 3.931 3.931 0 0 0 -.36-1.64 3.988 3.988 0 0 1 2.36 3.64z" fill="#ebbf00"/><circle cx="9" cy="10" fill="#ffde55" r="5"/><path d="m50 8a5 5 0 0 1 -9.09 2.88 4.921 4.921 0 0 0 1.09.12 5 5 0 0 0 4.09-7.88 5 5 0 0 1 3.91 4.88z" fill="#ebbf00"/><path d="m14 10a5 5 0 0 1 -9.09 2.88 4.921 4.921 0 0 0 1.09.12 5 5 0 0 0 4.09-7.88 5 5 0 0 1 3.91 4.88z" fill="#ebbf00"/><path d="m2.46 19.842 22.54 14.458v8.7a1 1 0 0 0 1 1h12a1 1 0 0 0 1-1v-8.7l22.54-14.458a1 1 0 0 0 -.54-1.842h-58a1 1 0 0 0 -.54 1.842zm55.128.158-20.128 12.908a1 1 0 0 0 -.46.842v8.25h-10v-8.25a1 1 0 0 0 -.46-.842l-20.128-12.908z"/><path d="m32 46a8 8 0 1 0 8 8 8.009 8.009 0 0 0 -8-8zm0 14a6 6 0 1 1 6-6 6.006 6.006 0 0 1 -6 6z"/><path d="m31.682 54.586-2.127-1.418-1.11 1.664 3 2a1.007 1.007 0 0 0 .555.168 1.036 1.036 0 0 0 .22-.024 1 1 0 0 0 .637-.461l3-5-1.714-1.03z"/><path d="m54 40a8 8 0 1 0 8 8 8.009 8.009 0 0 0 -8-8zm0 14a6 6 0 1 1 6-6 6.006 6.006 0 0 1 -6 6z"/><path d="m53.682 48.586-2.127-1.418-1.11 1.664 3 2a1.007 1.007 0 0 0 .555.168 1.036 1.036 0 0 0 .22-.024 1 1 0 0 0 .637-.461l3-5-1.714-1.03z"/><path d="m10 40a8 8 0 1 0 8 8 8.009 8.009 0 0 0 -8-8zm0 14a6 6 0 1 1 6-6 6.006 6.006 0 0 1 -6 6z"/><path d="m9.682 48.586-2.127-1.418-1.11 1.664 3 2a1.007 1.007 0 0 0 .555.168 1.036 1.036 0 0 0 .22-.024 1 1 0 0 0 .637-.461l3-5-1.714-1.03z"/><path d="m33 16a4 4 0 1 0 -4-4 4 4 0 0 0 4 4zm0-6a2 2 0 1 1 -2 2 2 2 0 0 1 2-2z"/><path d="m58 13a4 4 0 1 0 -4-4 4 4 0 0 0 4 4zm0-6a2 2 0 1 1 -2 2 2 2 0 0 1 2-2z"/><path d="m23 12a5 5 0 1 0 -5-5 5.006 5.006 0 0 0 5 5zm0-8a3 3 0 1 1 -3 3 3 3 0 0 1 3-3z"/><path d="m45 14a6 6 0 1 0 -6-6 6.006 6.006 0 0 0 6 6zm0-10a4 4 0 1 1 -4 4 4 4 0 0 1 4-4z"/><path d="m9 16a6 6 0 1 0 -6-6 6.006 6.006 0 0 0 6 6zm0-10a4 4 0 1 1 -4 4 4 4 0 0 1 4-4z"/><path d="m32 33a1 1 0 0 0 .707-.293l3-3-1.414-1.414-1.293 1.293v-7.586h-2v7.586l-1.293-1.293-1.414 1.414 3 3a1 1 0 0 0 .707.293z"/></g></svg>