<svg id="Layer_1" enable-background="new 0 0 53 53" height="512" viewBox="0 0 53 53" width="512" xmlns="http://www.w3.org/2000/svg"><g><path d="m45.6 10.6c2.6-.3 4.4-2.8 3.9-5.4-.4-1.8-1.9-3.3-3.8-3.5-1.2-.1-17.5.5-19.9.6 24.3 1.3 16.7.2 19.8.7 1.3.2 2.3 1.2 2.4 2.4.3 1.7-.9 3.2-2.5 3.4-.2 0 1.6 0-18.2-.1-.1 0-19.2 0-19.3 0-.1 0-.3 0-.4.1-1.3-.1-2.3-1-2.6-2.2-.4-1.7.8-3.3 2.5-3.6.5-.1 11.4-.3 18.3-.7-3.6-.2-17.4-.7-18.4-.6-2.5.2-4.4 2.6-3.9 5.2.2 1.2 1 2.3 2 3 .5.3 1.1.5 1.7.6 2.2 3.5 4.4 7.1 6.6 10.6 4.2 6.6 6.8 10.6 7 10.8.1.1.2.2.4.2-.6 5.4-.9 12.8-.9 18.2 0 .2.1.4.2.6.3.4.9.5 1.4.2.6-.5.8-.6 5.3-4.1.9-.7 1.7-1.4 2.6-2.1 1.7-1.4 2.5-2.1 2.6-2.2.2-.1.3-.3.2-.6-.1-3.5-.4-7-.8-10.5h.1l.9-1.7c1.7 1.8 4.1 2.8 6.6 2.8s4.9-1 6.6-2.8 2.7-4.2 2.6-6.6-1.2-4.7-2.9-6.3c-1.1-1-2.4-1.7-3.8-2 1-1.5 2.1-3 3.1-4.5.1.1.3.1.6.1zm-14.6 31.2c-.8.6-1.6 1.2-2.4 1.7-.9.7-1.8 1.3-2.7 2-1.3 1-2.5 1.9-3.8 2.9-.1-5.1-.3-11.1-.9-16.2 3.5-.1 7-.3 10.5-.4-.3 3.3-.5 6.6-.7 10zm10.8-26.7c-.8-.1-1.6-.2-2.4-.1 2.2.2 4.2 1.2 5.6 2.8 1.4 1.5 2.1 3.6 2 5.6s-.9 3.9-2.3 5.3-3.3 2.1-5.3 2.1c-1.9 0-3.9-.8-5.3-2.1s-2.3-3.3-2.3-5.3c-.1-2 .6-4 2-5.6s3.4-2.6 5.6-2.8c-2.2-.2-4.5.6-6.3 2.1-1.7 1.5-2.8 3.9-2.9 6.3s.8 4.8 2.5 6.5l-1.1 1.5c-3.3-.1-6.7-.3-10-.4-2.9-5.1-6.9-12-12-20.2h17.6c.1 0 16.9-.1 16.8-.1h.2c-.8 1.4-1.6 2.9-2.4 4.4z"/><path d="m35.4 27.1c1-.4 1.8-.9 2.5-1.4.5-.4 1-.8 1.4-1.2.5.4.9.8 1.4 1.2.8.6 1.6 1.1 2.5 1.4-.4-1-.9-1.8-1.4-2.5-.4-.5-.8-1-1.2-1.4.4-.5.8-.9 1.2-1.4.6-.8 1.1-1.6 1.4-2.5-1 .4-1.8.9-2.5 1.4-.5.4-1 .8-1.4 1.2-.5-.4-.9-.8-1.4-1.2-.8-.6-1.6-1.1-2.5-1.4.4 1 .9 1.8 1.4 2.5.4.5.8 1 1.2 1.4-.4.5-.8.9-1.2 1.4-.5.7-1 1.5-1.4 2.5z"/></g></svg>