<svg id="Capa_1" enable-background="new 0 0 497.627 497.627" height="512" viewBox="0 0 497.627 497.627" width="512" xmlns="http://www.w3.org/2000/svg"><g><g><path d="m450.707 59.483-161.126 200.576v171.809c0 1.866-.819 3.639-2.241 4.848l-69.806 59.381c-4.134 3.516-10.489.578-10.489-4.848v-231.19l-161.126-200.576v-43.57h404.788z" fill="#ecf6fe"/></g><g><path d="m90.433 15.913v42.874l-4.966-6.181v-36.693h-39.548v43.571l161.126 200.576v231.19c0 5.427 6.355 8.364 10.489 4.848l29.059-24.72v-205.947c0-7.928-2.707-15.619-7.672-21.801l-108.566-135.147c-9.374-11.67-1.067-28.999 13.902-28.999h290.384l16.066-20v-43.571z" fill="#dcebfc"/><path d="m451.707 59.484h-405.788c-7.422 0-13.439-6.017-13.439-13.439v-32.606c.001-7.422 6.017-13.439 13.439-13.439h405.788c7.422 0 13.439 6.017 13.439 13.439v32.606c0 7.422-6.017 13.439-13.439 13.439z" fill="#97c9f9"/><path d="m419.283 98.601c-13.023-7.166-27.971-11.249-43.856-11.249-50.326 0-91.27 40.943-91.27 91.27 0 22.976 8.537 43.992 22.601 60.054z" fill="#dcebfc"/><circle cx="375.428" cy="178.622" fill="#e5827f" r="71.269"/><path d="m329.606 181.167c0-37.439 28.891-68.13 65.582-71.039-6.272-1.805-12.907-2.775-19.76-2.775-39.361 0-71.269 31.908-71.269 71.27 0 39.361 31.908 71.269 71.269 71.269 1.922 0 3.825-.083 5.708-.232-29.752-8.564-51.53-35.985-51.53-68.493z" fill="#de6a66"/><path d="m410.727 157.865-13.258-13.258c-1.617-1.617-4.238-1.617-5.855 0l-12.616 12.616c-1.617 1.617-4.238 1.617-5.855 0l-12.616-12.616c-1.617-1.617-4.238-1.617-5.855 0l-13.258 13.258c-1.617 1.617-1.617 4.238 0 5.855l12.616 12.616c1.617 1.617 1.617 4.238 0 5.855l-12.616 12.616c-1.617 1.617-1.617 4.238 0 5.855l13.258 13.258c1.617 1.617 4.238 1.617 5.855 0l12.616-12.616c1.617-1.617 4.238-1.617 5.855 0l12.616 12.616c1.617 1.617 4.238 1.617 5.855 0l13.258-13.258c1.617-1.617 1.617-4.238 0-5.855l-12.616-12.616c-1.617-1.617-1.617-4.238 0-5.855l12.616-12.616c1.617-1.617 1.617-4.238 0-5.855z" fill="#f8f7f8"/></g></g></svg>