<svg id="Capa_1" enable-background="new 0 0 512.638 512.638" height="512" viewBox="0 0 512.638 512.638" width="512" xmlns="http://www.w3.org/2000/svg"><g><g><g><path d="m458.213 66.983-161.126 200.576v171.809c0 1.866-.819 3.639-2.241 4.848l-69.806 59.381c-4.134 3.516-10.489.578-10.489-4.848v-231.19l-161.126-200.576v-43.57h404.788z" fill="#ecf6fe"/></g><g><path d="m97.939 23.413v42.874l-4.966-6.181v-36.693h-39.548v43.571l161.126 200.576v231.19c0 5.427 6.355 8.364 10.489 4.848l29.059-24.72v-205.947c0-7.928-2.707-15.619-7.672-21.801l-108.567-135.148c-9.374-11.67-1.067-28.999 13.902-28.999h290.384l16.066-20v-43.57z" fill="#dcebfc"/><path d="m459.213 66.983h-405.788c-7.422 0-13.439-6.017-13.439-13.439v-32.605c0-7.422 6.017-13.439 13.439-13.439h405.788c7.422 0 13.439 6.017 13.439 13.439v32.606c0 7.422-6.017 13.438-13.439 13.438z" fill="#97c9f9"/><path d="m426.789 106.101c-13.023-7.166-27.971-11.249-43.856-11.249-50.326 0-91.27 40.943-91.27 91.27 0 22.976 8.537 43.992 22.601 60.054z" fill="#dcebfc"/><circle cx="382.933" cy="186.122" fill="#e5827f" r="71.269"/><path d="m337.112 188.667c0-37.439 28.891-68.13 65.582-71.039-6.272-1.805-12.907-2.775-19.76-2.775-39.361 0-71.269 31.908-71.269 71.27 0 39.361 31.908 71.269 71.269 71.269 1.922 0 3.825-.083 5.708-.232-29.753-8.564-51.53-35.985-51.53-68.493z" fill="#de6a66"/><path d="m418.232 165.365-13.258-13.258c-1.617-1.617-4.238-1.617-5.855 0l-12.616 12.616c-1.617 1.617-4.238 1.617-5.855 0l-12.616-12.616c-1.617-1.617-4.238-1.617-5.855 0l-13.258 13.258c-1.617 1.617-1.617 4.238 0 5.855l12.616 12.616c1.617 1.617 1.617 4.238 0 5.855l-12.616 12.616c-1.617 1.617-1.617 4.238 0 5.855l13.258 13.258c1.617 1.617 4.238 1.617 5.855 0l12.616-12.616c1.617-1.617 4.238-1.617 5.855 0l12.616 12.616c1.617 1.617 4.238 1.617 5.855 0l13.258-13.258c1.617-1.617 1.617-4.238 0-5.855l-12.616-12.616c-1.617-1.617-1.617-4.238 0-5.855l12.616-12.616c1.617-1.617 1.617-4.238 0-5.855z" fill="#f8f7f8"/></g></g><g><path d="m459.213 0h-405.789c-11.546 0-20.938 9.393-20.938 20.938v32.606c0 10.212 7.353 18.727 17.04 20.561l157.526 196.094v121.567c0 4.143 3.357 7.5 7.5 7.5s7.5-3.357 7.5-7.5v-124.206c0-1.708-.583-3.365-1.653-4.697l-151.33-188.38h76.684c4.143 0 7.5-3.357 7.5-7.5s-3.357-7.5-7.5-7.5h-92.329c-3.274 0-5.938-2.664-5.938-5.938v-32.607c0-3.274 2.664-5.938 5.938-5.938h405.789c3.274 0 5.938 2.664 5.938 5.938v32.606c0 3.274-2.664 5.938-5.938 5.938h-281.497c-4.143 0-7.5 3.357-7.5 7.5s3.357 7.5 7.5 7.5h264.852l-30.811 38.355c-8.934-3.526-18.651-5.486-28.824-5.486-43.434 0-78.769 35.336-78.769 78.77 0 16.257 4.952 31.379 13.425 43.939l-26.35 32.801c-1.07 1.332-1.653 2.989-1.653 4.697v171.285l-67.535 57.448v-72.563c0-4.143-3.357-7.5-7.5-7.5s-7.5 3.357-7.5 7.5v75.021c0 5.469 3.084 10.292 8.049 12.586 1.89.874 3.882 1.302 5.855 1.302 3.208 0 6.365-1.134 8.943-3.327l69.808-59.382c3.102-2.639 4.88-6.488 4.88-10.561v-169.168l22.756-28.328c14.257 14.217 33.914 23.02 55.591 23.02 12.679 0 24.81-2.941 36.057-8.743 3.681-1.898 5.126-6.422 3.227-10.104-1.898-3.682-6.424-5.124-10.104-3.227-9.1 4.693-18.917 7.073-29.18 7.073-35.162 0-63.769-28.606-63.769-63.77s28.606-63.77 63.769-63.77 63.77 28.606 63.77 63.77c0 13.887-4.385 27.085-12.68 38.168-2.481 3.316-1.806 8.017 1.511 10.499 3.319 2.483 8.018 1.805 10.499-1.511 10.251-13.697 15.67-30.004 15.67-47.156 0-27.808-14.497-52.277-36.317-66.298l36.586-45.544c10.243-1.357 18.18-10.127 18.18-20.735v-32.605c0-11.545-9.393-20.938-20.939-20.938z"/><path d="m426.945 168.293c0-3.109-1.211-6.032-3.409-8.231l-13.257-13.256c-2.198-2.199-5.122-3.411-8.232-3.411-3.109 0-6.033 1.212-8.229 3.409l-10.241 10.24-10.24-10.24c-2.199-2.198-5.122-3.409-8.231-3.409s-6.032 1.211-8.231 3.409l-13.258 13.258c-2.198 2.199-3.409 5.122-3.409 8.231s1.211 6.032 3.409 8.231l10.24 10.24-10.238 10.239c-2.199 2.198-3.411 5.122-3.411 8.232 0 3.109 1.212 6.033 3.409 8.23l13.258 13.258c2.199 2.198 5.122 3.409 8.231 3.409s6.032-1.211 8.231-3.409l10.24-10.24 10.239 10.238c2.198 2.199 5.122 3.411 8.231 3.411 3.11 0 6.034-1.212 8.231-3.409l13.256-13.257c2.199-2.198 3.411-5.122 3.411-8.231 0-3.11-1.212-6.034-3.409-8.23l-10.24-10.241 10.24-10.24c2.198-2.199 3.409-5.122 3.409-8.231zm-26.633 26.701 10.24 10.241-8.506 8.506-10.239-10.238c-2.198-2.199-5.122-3.411-8.231-3.411-3.11 0-6.034 1.212-8.231 3.409l-10.24 10.241-8.506-8.507 10.238-10.239c2.199-2.198 3.411-5.122 3.411-8.232 0-3.109-1.212-6.033-3.409-8.23l-10.241-10.24 8.507-8.507 10.239 10.239c2.198 2.199 5.122 3.411 8.232 3.411 3.109 0 6.033-1.212 8.229-3.409l10.241-10.24 8.507 8.506-10.239 10.239c-2.199 2.198-3.411 5.122-3.411 8.231 0 3.11 1.212 6.034 3.409 8.23z"/></g></g></svg>