<svg enable-background="new 0 0 520 520" height="512" viewBox="0 0 520 520" width="512" xmlns="http://www.w3.org/2000/svg"><g id="_x36_30_x2C__Filter_x2C__Funnel_x2C__Sort_x2C__Filter"><g><g><path d="m372.5 287.5c38.66 0 70 31.34 70 70s-31.34 70-70 70-70-31.34-70-70 31.34-70 70-70z" fill="#d94556"/><g fill="#ffd400"><path d="m327.5 42.5c11.05 0 20 8.95 20 20s-8.95 20-20 20c-11.051 0-20-8.95-20-20s8.949-20 20-20z"/><path d="m267.5 87.5c8.279 0 15 6.72 15 15s-6.721 15-15 15c-8.28 0-15-6.72-15-15s6.72-15 15-15z"/><path d="m102.5 52.5c8.28 0 15 6.72 15 15s-6.72 15-15 15-15-6.72-15-15 6.72-15 15-15z"/><path d="m162.5 82.5c13.81 0 25 11.19 25 25s-11.19 25-25 25-25-11.19-25-25 11.19-25 25-25z"/><path d="m252.5 167.5h-50c0-13.81 11.19-25 25-25s25 11.19 25 25z"/><path d="m442.5 217.5c11.05 0 20 8.95 20 20s-8.95 20-20 20c-11.051 0-20-8.95-20-20s8.949-20 20-20z"/><path d="m77.5 347.5c13.81 0 25 11.19 25 25s-11.19 25-25 25-25-11.19-25-25 11.19-25 25-25z"/></g><path d="m326.57 242.5-69.07 112.79v87.21l-80 35v-122.21l-69.07-112.79z" fill="#3f4751"/><path d="m62.5 167.5 24.5 40 21.43 35h218.14l21.43-35 24.5-40c-70.99 0-256.619 0-310 0z" fill="#07cc66"/><path d="m348 207.5-21.43 35h-218.14l-21.43-35z" fill="#19ab5c"/><path d="m372.5 167.5-24.5 40h-261l-24.5-40z" fill="#07cc66"/><path d="m408.109 322.14c5.86 5.86 5.86 15.36 0 21.221l-14.14 14.14 14.14 14.14c2.931 2.931 4.391 6.771 4.391 10.61s-1.46 7.68-4.391 10.61c-5.859 5.85-15.359 5.85-21.22 0l-14.14-14.15-14.141 14.15c-2.93 2.92-6.77 4.39-10.609 4.39-3.84 0-7.68-1.47-10.6-4.39-5.86-5.86-5.86-15.36 0-21.221l14.14-14.14-14.14-14.14c-5.86-5.86-5.86-15.36 0-21.221 5.85-5.85 15.35-5.85 21.209 0l14.141 14.15 14.14-14.15c5.861-5.849 15.361-5.849 21.22.001z" fill="#fff"/><circle cx="460" cy="440" fill="#3256c1" r="7.5"/><circle cx="425" cy="155" fill="#3256c1" r="7.5"/><circle cx="310" cy="440" fill="#3256c1" r="7.5"/><circle cx="215" cy="60" fill="#3256c1" r="7.5"/><circle cx="135" cy="432.5" fill="#3256c1" r="7.5"/><circle cx="60" cy="265" fill="#3256c1" r="7.5"/></g><g><path d="m372.5 287.5c38.66 0 70 31.34 70 70s-31.34 70-70 70-70-31.34-70-70 31.34-70 70-70z" fill="#d94556"/><g fill="#ffd400"><path d="m327.5 42.5c11.05 0 20 8.95 20 20s-8.95 20-20 20c-11.051 0-20-8.95-20-20s8.949-20 20-20z"/><path d="m267.5 87.5c8.279 0 15 6.72 15 15s-6.721 15-15 15c-8.28 0-15-6.72-15-15s6.72-15 15-15z"/><path d="m102.5 52.5c8.28 0 15 6.72 15 15s-6.72 15-15 15-15-6.72-15-15 6.72-15 15-15z"/><path d="m162.5 82.5c13.81 0 25 11.19 25 25s-11.19 25-25 25-25-11.19-25-25 11.19-25 25-25z"/><path d="m252.5 167.5h-50c0-13.81 11.19-25 25-25s25 11.19 25 25z"/><path d="m442.5 217.5c11.05 0 20 8.95 20 20s-8.95 20-20 20c-11.051 0-20-8.95-20-20s8.949-20 20-20z"/><path d="m77.5 347.5c13.81 0 25 11.19 25 25s-11.19 25-25 25-25-11.19-25-25 11.19-25 25-25z"/></g><path d="m326.57 242.5-69.07 112.79v87.21l-80 35v-122.21l-69.07-112.79z" fill="#3f4751"/><path d="m62.5 167.5 24.5 40 21.43 35h218.14l21.43-35 24.5-40c-70.99 0-256.619 0-310 0z" fill="#07cc66"/><path d="m348 207.5-21.43 35h-218.14l-21.43-35z" fill="#19ab5c"/><path d="m372.5 167.5-24.5 40h-261l-24.5-40z" fill="#07cc66"/><path d="m408.109 322.14c5.86 5.86 5.86 15.36 0 21.221l-14.14 14.14 14.14 14.14c2.931 2.931 4.391 6.771 4.391 10.61s-1.46 7.68-4.391 10.61c-5.859 5.85-15.359 5.85-21.22 0l-14.14-14.15-14.141 14.15c-2.93 2.92-6.77 4.39-10.609 4.39-3.84 0-7.68-1.47-10.6-4.39-5.86-5.86-5.86-15.36 0-21.221l14.14-14.14-14.14-14.14c-5.86-5.86-5.86-15.36 0-21.221 5.85-5.85 15.35-5.85 21.209 0l14.141 14.15 14.14-14.15c5.861-5.849 15.361-5.849 21.22.001z" fill="#fff"/><circle cx="460" cy="440" fill="#3256c1" r="7.5"/><circle cx="425" cy="155" fill="#3256c1" r="7.5"/><circle cx="310" cy="440" fill="#3256c1" r="7.5"/><circle cx="215" cy="60" fill="#3256c1" r="7.5"/><circle cx="135" cy="432.5" fill="#3256c1" r="7.5"/><circle cx="60" cy="265" fill="#3256c1" r="7.5"/></g></g></g></svg>