<svg id="Capa_1" enable-background="new 0 0 470.023 470.023" height="512" viewBox="0 0 470.023 470.023" width="512" xmlns="http://www.w3.org/2000/svg"><g><path d="m35.66 12.336h385.296c17.814 0 32.255 14.441 32.255 32.254 0 17.814-14.441 32.254-32.255 32.254h-385.296c-17.814 0-32.254-14.441-32.254-32.254 0-17.813 14.441-32.254 32.254-32.254z" fill="#bbbbcd"/><path d="m420.977 80.251h-385.317c-19.694 0-35.66-15.965-35.66-35.66s15.966-35.661 35.66-35.661h385.317c19.695 0 35.66 15.966 35.66 35.66s-15.965 35.661-35.66 35.661zm-385.317-64.509c-15.932.002-28.846 12.92-28.844 28.853.002 15.93 12.915 28.843 28.845 28.845h385.317c15.933-.002 28.847-12.92 28.845-28.852-.002-15.93-12.915-28.843-28.845-28.845h-385.318z" fill="#323c6b"/><path d="m420.977 12.336h-20.436c17.814-.003 32.257 14.435 32.261 32.248s-14.435 32.257-32.248 32.261c-.004 0-.008 0-.012 0h20.436c17.814.003 32.257-14.435 32.261-32.248s-14.435-32.257-32.248-32.261c-.006 0-.01 0-.014 0z" fill="#9a9eaf"/><path d="m94.332 202.369c-1.079-.01-2.09-.53-2.725-1.403l-38.249-52.527c-1.108-1.522-.772-3.654.749-4.762 1.522-1.108 3.654-.772 4.762.749l38.249 52.527c1.106 1.521.769 3.652-.752 4.758-.574.417-1.263.645-1.973.651z" fill="#323c6b"/><path d="m108.664 222.069c-1.079-.01-2.09-.53-2.725-1.403l-2.854-3.924c-1.108-1.522-.772-3.654.749-4.762 1.522-1.108 3.654-.772 4.762.749l2.854 3.924c1.106 1.521.769 3.652-.752 4.758-.574.417-1.263.645-1.973.651z" fill="#323c6b"/><path d="m425.936 76.845-142.607 195.837v130.482l-110.04 54.523v-185.005l-142.608-195.837z" fill="#dbd8dd"/><path d="m173.289 461.093c-1.881 0-3.406-1.525-3.406-3.406v-183.922l-141.954-194.917c-1.106-1.521-.769-3.652.752-4.758.574-.417 1.263-.645 1.973-.651h395.276c1.881.017 3.392 1.555 3.376 3.436-.006.709-.234 1.399-.651 1.973l-141.92 194.944v129.372c0 1.294-.734 2.477-1.894 3.052l-110.04 54.495c-.468.243-.986.373-1.512.382zm-135.912-380.842 138.664 190.427c.434.578.672 1.28.681 2.003v179.515l103.228-51.144v-128.37c.009-.723.247-1.424.681-2.003l138.609-190.428z" fill="#323c6b"/><path d="m405.501 76.845-142.608 195.837v140.325l-89.604 44.394v.286l110.04-54.523v-130.482l142.607-195.837z" fill="#bbbbcd"/><g fill="#323c6b"><path d="m173.289 461.093c-1.881 0-3.406-1.525-3.406-3.406v-183.922l-141.954-194.917c-1.106-1.521-.769-3.652.752-4.758.574-.417 1.263-.645 1.973-.651h395.276c1.881.017 3.392 1.555 3.376 3.436-.006.709-.234 1.399-.651 1.973l-141.92 194.944v129.372c0 1.294-.734 2.477-1.894 3.052l-110.04 54.495c-.468.243-.986.373-1.512.382zm-135.912-380.842 138.664 190.427c.434.578.672 1.28.681 2.003v179.515l103.228-51.144v-128.37c.009-.723.247-1.424.681-2.003l138.609-190.428z"/><path d="m420.977 80.251h-385.317c-19.694 0-35.66-15.965-35.66-35.66s15.966-35.661 35.66-35.661h385.317c19.695 0 35.66 15.966 35.66 35.66s-15.965 35.661-35.66 35.661zm-385.317-64.509c-15.932.002-28.846 12.92-28.844 28.853.002 15.93 12.915 28.843 28.845 28.845h385.317c15.933-.002 28.847-12.92 28.845-28.852-.002-15.93-12.915-28.843-28.845-28.845h-385.318z"/><path d="m390.834 411.604c-1.881 0-3.406-1.525-3.406-3.406s1.525-3.406 3.406-3.406h4.203c1.827.082 3.317 1.491 3.501 3.311.053 1.88-1.428 3.448-3.308 3.501-.001 0-.002 0-.003 0-.864-.014-3.541 0-4.393 0z"/><path d="m413.641 408.866c-1.881.002-3.408-1.521-3.409-3.402-.002-1.574 1.076-2.944 2.606-3.314 19.033-4.633 36.1-15.199 48.733-30.17 1.178-1.467 3.322-1.701 4.788-.523 1.467 1.178 1.701 3.322.523 4.788-.039.048-.079.096-.12.142-13.558 16.068-31.875 27.406-52.302 32.377-.269.066-.544.101-.819.102z"/></g><path d="m466.617 311.905c.019 41.872-33.91 75.832-75.783 75.851-41.872.019-75.832-33.91-75.851-75.783-.019-41.872 33.91-75.832 75.783-75.851h.068c41.835.045 75.738 33.948 75.783 75.783z" fill="#b1dcc1"/><path d="m390.834 391.168c-43.754.019-79.238-35.435-79.257-79.189s35.435-79.238 79.189-79.257c43.751-.019 79.234 35.431 79.257 79.182-.049 43.727-35.462 79.174-79.189 79.264zm0-151.64c-39.991-.019-72.426 32.385-72.445 72.377-.019 39.991 32.385 72.426 72.377 72.445 39.991.019 72.426-32.385 72.445-72.377 0-.023 0-.045 0-.068-.064-39.947-32.43-72.313-72.377-72.377z" fill="#323c6b"/><path d="m390.834 236.122c-3.419.026-6.833.284-10.218.77 41.449 5.611 70.502 43.761 64.89 85.211-4.571 33.764-31.126 60.319-64.89 64.89 41.47 5.655 79.672-23.38 85.326-64.85s-23.38-79.672-64.85-85.326c-3.399-.464-6.826-.696-10.258-.695z" fill="#9dceb2"/><path d="m359.336 346.809c-1.881.003-3.409-1.519-3.412-3.4-.002-.907.359-1.777 1.001-2.418l62.922-62.922c1.353-1.307 3.509-1.27 4.816.083 1.275 1.32 1.275 3.413 0 4.733l-62.949 62.929c-.632.63-1.486.988-2.378.995z" fill="#323c6b"/><path d="m422.258 346.809c-.904.002-1.771-.356-2.411-.995l-62.901-62.929c-1.307-1.353-1.27-3.509.083-4.816 1.32-1.275 3.413-1.275 4.733 0l62.922 62.922c1.332 1.328 1.335 3.485.006 4.817-.64.642-1.511 1.002-2.417 1.001z" fill="#323c6b"/><path d="m390.834 391.168c-43.754.019-79.238-35.435-79.257-79.189s35.435-79.238 79.189-79.257c43.751-.019 79.234 35.431 79.257 79.182-.049 43.727-35.462 79.174-79.189 79.264zm0-151.64c-39.991-.019-72.426 32.385-72.445 72.377-.019 39.991 32.385 72.426 72.377 72.445 39.991.019 72.426-32.385 72.445-72.377 0-.023 0-.045 0-.068-.064-39.947-32.43-72.313-72.377-72.377z" fill="#323c6b"/><path d="m60.722 28.229h82.554c3.578 0 6.478 2.899 6.478 6.475 0 3.576-2.9 6.475-6.478 6.475h-82.554c-3.578 0-6.478-2.899-6.478-6.475-.001-3.577 2.9-6.475 6.478-6.475z" fill="#eeefee"/><path d="m34.605 28.229h3.467c3.578 0 6.478 2.899 6.478 6.475 0 3.576-2.9 6.475-6.478 6.475h-3.467c-3.578 0-6.478-2.899-6.478-6.475-.001-3.577 2.9-6.475 6.478-6.475z" fill="#eeefee"/></g></svg>