<svg id="Capa_1" enable-background="new 0 0 497 497" height="512" viewBox="0 0 497 497" width="512" xmlns="http://www.w3.org/2000/svg"><g><path d="m166.311 288.796h45.001v60h-45.001z" fill="#ffbb6e" transform="matrix(.707 .707 -.707 .707 280.724 -40.136)"/><path d="m157.901 272.886h30.001v60h-30.001z" fill="#ffd478" transform="matrix(.707 .707 -.707 .707 264.814 -33.546)"/><path d="m194.114 345.312-21.213-21.213-42.426 21.213 42.426 21.213c5.858 5.858 15.355 5.858 21.213 0 5.858-5.857 5.858-15.355 0-21.213z" fill="#ffd478"/><path d="m172.901 345.312c5.858-5.858 5.858-15.355 0-21.213l-21.213-21.213c-5.858-5.858-15.355-5.858-21.213 0s-5.858 15.355 0 21.213v21.213h21.213c5.858 5.858 15.355 5.858 21.213 0z" fill="#ffe7ad"/><path d="m236.541 302.886-21.213-21.213-21.213 21.213 21.213 21.213c5.858 5.858 15.355 5.858 21.213 0 5.857-5.858 5.857-15.355 0-21.213z" fill="#ffd478"/><path d="m215.327 302.886c5.858-5.858 5.858-15.355 0-21.213l-21.213-21.213c-5.858-5.858-15.355-5.858-21.213 0s-5.858 15.355 0 21.213l21.213 21.213c5.858 5.858 15.356 5.858 21.213 0z" fill="#ffe7ad"/><path d="m172.901 366.525-21.213-21.213-138.508 138.508c17.574 17.574 46.066 17.574 63.64 0l96.081-96.081c5.858-5.858 5.858-15.356 0-21.214z" fill="#2d5093"/><path d="m55.607 462.607 96.081-96.081c5.858-5.858 5.858-15.355 0-21.213l-21.213-21.213c-5.858-5.858-15.355-5.858-21.213 0l-96.082 96.08c-17.574 17.574-17.574 46.066 0 63.64 5.858 5.858 24.853-3.64 42.427-21.213z" fill="#4367b1"/><circle cx="332" cy="165" fill="#ffbb6e" r="165"/><path d="m332 30v270c74.558 0 135-60.442 135-135s-60.442-135-135-135z" fill="#e5f2ff"/><path d="m437 165c0-74.558-47.01-135-105-135-74.558 0-135 60.442-135 135s60.442 135 135 135c57.99 0 105-60.442 105-135z" fill="#fff"/><g fill="#4367b1"><circle cx="392" cy="165" r="15"/><circle cx="332" cy="165" r="15"/><circle cx="272" cy="165" r="15"/></g></g></svg>