<svg id="Flat" height="512" viewBox="0 0 512 512" width="512" xmlns="http://www.w3.org/2000/svg"><g fill="#596063"><path d="m224 488h-176v-64l24-288h160v168.004l-32-.004 24 120z"/><path d="m200 136h-96l-16-72v-40h128v40z"/><path d="m464 488h-176v-64l24-120h-32v-168h160l24 288z"/><path d="m408 136h-96l-16-72v-40h128v40z"/></g><path d="m456 304h-176v-16h-48v16h-176l8-168h168v40h48v-40h168z" fill="#757c80"/><path d="m192 176h128v88h-128z" fill="#596063"/><path d="m232 264h48v32h-48z" fill="#9aa3a8"/><path d="m232 144h48v32h-48z" fill="#9aa3a8"/><path d="m48 424h176v64h-176z" fill="#757c80"/><path d="m288 424h176v64h-176z" fill="#757c80"/><path d="m248 176h16v88h-16z" fill="#7e8589"/><path d="m216 176h16v88h-16z" fill="#7e8589"/><path d="m280 176h16v88h-16z" fill="#7e8589"/><path d="m88 24h128v40h-128z" fill="#757c80"/><path d="m296 24h128v40h-128z" fill="#757c80"/></svg>