<svg id="Icons" enable-background="new 0 0 128 128" height="512" viewBox="0 0 128 128" width="512" xmlns="http://www.w3.org/2000/svg"><path id="List" d="m32 40h-16c-4.412 0-8-3.59-8-8v-16c0-4.41 3.588-8 8-8h16c4.412 0 8 3.59 8 8v16c0 4.41-3.588 8-8 8zm-16-24v16h16.006l-.006-16zm104 8c0-2.211-1.791-4-4-4h-64c-2.209 0-4 1.789-4 4s1.791 4 4 4h64c2.209 0 4-1.789 4-4zm-88 56h-16c-4.412 0-8-3.59-8-8v-16c0-4.41 3.588-8 8-8h16c4.412 0 8 3.59 8 8v16c0 4.41-3.588 8-8 8zm-16-24v16h16.006l-.006-16zm104 8c0-2.211-1.791-4-4-4h-64c-2.209 0-4 1.789-4 4s1.791 4 4 4h64c2.209 0 4-1.789 4-4zm-88 56h-16c-4.412 0-8-3.59-8-8v-16c0-4.41 3.588-8 8-8h16c4.412 0 8 3.59 8 8v16c0 4.41-3.588 8-8 8zm-16-24v16h16.006l-.006-16zm104 8c0-2.211-1.791-4-4-4h-64c-2.209 0-4 1.789-4 4s1.791 4 4 4h64c2.209 0 4-1.789 4-4z"/></svg>