<svg id="Layer_1" enable-background="new 0 0 64 64" height="512" viewBox="0 0 64 64" width="512" xmlns="http://www.w3.org/2000/svg"><g><path d="m40.095 49.997c-.021 0-.042 0-.063-.001-1.104-.034-1.971-.957-1.938-2.061l.736-24c.034-1.104.931-1.981 2.061-1.938 1.104.034 1.971.957 1.938 2.061l-.736 24c-.033 1.084-.922 1.939-1.998 1.939z"/></g><g><path d="m24.907 49.997c-1.076 0-1.965-.855-1.998-1.938l-.736-24c-.034-1.104.833-2.027 1.938-2.061 1.108-.043 2.027.833 2.061 1.938l.736 24c.034 1.104-.833 2.027-1.938 2.061-.021 0-.042 0-.063 0z"/></g><g><path d="m33.001 49.997c-1.104 0-2-.896-2-2v-24c0-1.104.896-2 2-2s2 .896 2 2v24c0 1.105-.895 2-2 2z"/></g><g><path d="m45.002 57.997h-26.002c-1.104 0-2-.896-2-2s.896-2 2-2h26.002c1.104 0 2 .896 2 2s-.895 2-2 2z"/></g><g><path d="m47.001 56.097c-.034 0-.067-.001-.102-.002-1.103-.055-1.953-.994-1.897-2.098l1.905-38.1c.056-1.103.992-1.938 2.098-1.897 1.103.055 1.953.994 1.897 2.098l-1.905 38.1c-.053 1.068-.936 1.899-1.996 1.899z"/></g><g><path d="m45.002 57.997c-1.104 0-2-.896-2-2s.896-2 2-2h.002c.056-1.104.989-1.967 2.097-1.897 1.103.055 1.952.994 1.896 2.098-.106 2.13-1.861 3.799-3.995 3.799z"/></g><g><path d="m17.001 56.097c-1.059 0-1.942-.831-1.996-1.9l-1.905-38.1c-.055-1.104.794-2.042 1.897-2.098 1.113-.051 2.042.795 2.098 1.897l1.905 38.101c.055 1.104-.794 2.042-1.897 2.098-.035.001-.069.002-.102.002z"/></g><g><path d="m19 57.997c-2.134 0-3.889-1.669-3.995-3.8-.055-1.104.794-2.042 1.897-2.098 1.112-.052 2.042.794 2.098 1.897v.002c1.104 0 2 .895 2 1.999s-.896 2-2 2z"/></g><g><path d="m40 17.997c-1.104 0-2-.896-2-2v-6c0-1.104.896-2 2-2s2 .896 2 2v6c0 1.105-.896 2-2 2z"/></g><g><path d="m24 17.997c-1.104 0-2-.896-2-2v-6c0-1.104.896-2 2-2s2 .896 2 2v6c0 1.105-.896 2-2 2z"/></g><g><path d="m52.002 17.997h-40.004c-1.104 0-2-.896-2-2s.896-2 2-2h40.005c1.104 0 2 .896 2 2s-.896 2-2.001 2z"/></g><g><path d="m23.999 11.997c-1.104 0-1.999-.896-1.999-2 0-2.206 1.794-4 4-4 1.104 0 2 .896 2 2s-.896 2-2 2h-.002c0 1.105-.894 2-1.999 2z"/></g><g><path d="m38 9.997h-12c-1.104 0-2-.896-2-2s.896-2 2-2h12c1.104 0 2 .896 2 2s-.896 2-2 2z"/></g><g><path d="m40 11.997c-1.104 0-2-.896-2-2v-.002c-1.104 0-2-.894-2-1.999 0-1.104.896-1.999 2-1.999 2.206 0 4 1.794 4 4 0 1.105-.896 2-2 2z"/></g></svg>