<svg id="Capa_1" enable-background="new 0 0 534.965 534.965" height="512" viewBox="0 0 534.965 534.965" width="512" xmlns="http://www.w3.org/2000/svg"><g><g id="collapse_arrow_2_"><path d="m267.482 534.965c-147.726 0-267.482-119.756-267.482-267.483s119.756-267.482 267.482-267.482 267.482 119.756 267.482 267.482-119.755 267.483-267.482 267.483zm0-515.859c-137.175 0-248.376 111.202-248.376 248.376s111.202 248.376 248.376 248.376 248.376-111.202 248.376-248.376-111.201-248.376-248.376-248.376z"/><path d="m267.482 348.682c-3.057.008-5.934-1.448-7.738-3.917-3.115-4.258-2.189-10.235 2.069-13.35.011-.008.022-.016.032-.024l171.953-124.188c4.273-3.113 10.261-2.172 13.374 2.102 3.113 4.273 2.172 10.261-2.102 13.374l-171.951 124.188c-1.64 1.187-3.613 1.823-5.637 1.815z"/><path d="m267.482 348.682c-2.024.007-3.997-.628-5.636-1.815l-171.953-124.188c-4.274-3.113-5.214-9.101-2.102-13.374 3.113-4.274 9.101-5.214 13.374-2.102l171.953 124.188c4.271 3.097 5.223 9.071 2.125 13.342-.008.011-.016.022-.024.032-1.803 2.469-4.679 3.925-7.737 3.917z"/></g></g></svg>