<svg id="Layer_1" enable-background="new 0 0 512 512" height="512" viewBox="0 0 512 512" width="512" xmlns="http://www.w3.org/2000/svg"><path d="m512 32v122.52c0 17.673-14.327 32-32 32s-32-14.327-32-32v-45.264l-109.233 109.232c-6.248 6.247-14.439 9.372-22.627 9.372-8.19 0-16.378-3.123-22.627-9.373-12.497-12.496-12.497-32.758 0-45.255l109.232-109.232h-45.265c-17.673 0-32-14.327-32-32s14.327-32 32-32h122.52c17.673 0 32 14.327 32 32zm-338.767 261.512-109.233 109.233v-45.265c0-17.673-14.327-32-32-32s-32 14.327-32 32v122.52c0 17.673 14.327 32 32 32h122.52c17.673 0 32-14.327 32-32s-14.327-32-32-32h-45.265l109.233-109.232c12.497-12.497 12.497-32.759 0-45.255-12.496-12.499-32.758-12.496-45.255-.001z"/></svg>