<svg height="405.33333pt" viewBox="0 0 405.33333 405.33333" width="405.33333pt" xmlns="http://www.w3.org/2000/svg"><path d="m21.332031 106.667969h-21.332031v-106.667969h106.667969v21.332031h-85.335938zm0 0"/><path d="m18.292969 3.132812 145.1875 145.191407-15.082031 15.085937-145.191407-145.191406zm0 0"/><path d="m405.332031 106.667969h-21.332031v-85.335938h-85.332031v-21.332031h106.664062zm0 0"/><path d="m387.113281 3.203125 15.082031 15.085937-145.191406 145.191407-15.082031-15.085938zm0 0"/><path d="m106.667969 405.332031h-106.667969v-106.664062h21.332031v85.332031h85.335938zm0 0"/><path d="m148.234375 241.941406 15.085937 15.085938-145.191406 145.191406-15.085937-15.085938zm0 0"/><path d="m405.332031 405.332031h-106.664062v-21.332031h85.332031v-85.332031h21.332031zm0 0"/><path d="m257.03125 242.011719 145.191406 145.191406-15.085937 15.082031-145.191407-145.1875zm0 0"/></svg>